<svg id="Layer_1" data-name="Layer 1" xmlns="http://www.w3.org/2000/svg" viewBox="0 0 128.68 113.99"><path d="M47.32,88.81a13.74,13.74,0,0,0,7,2c4,0,6.32-2.1,6.32-5.15,0-2.82-1.62-4.44-5.7-6-4.93-1.74-8-4.3-8-8.55,0-4.71,3.9-8.21,9.77-8.21a13.7,13.7,0,0,1,6.67,1.48l-1.07,3.18a12.14,12.14,0,0,0-5.74-1.43c-4.12,0-5.69,2.47-5.69,4.53,0,2.82,1.84,4.21,6,5.82,5.11,2,7.7,4.44,7.7,8.88C64.61,90,61.16,94,54,94a15.54,15.54,0,0,1-7.71-1.93Z" transform="translate(-46.33 -21.64)" style="fill:#ed2024"/><path d="M82.28,66.67H73.09V63.36H95.45v3.31H86.22V93.56H82.28Z" transform="translate(-46.33 -21.64)" style="fill:#ed2024"/><path d="M153.68,63.36h3.9V77.92h.13c.81-1.16,1.61-2.24,2.37-3.22l9.24-11.34h4.84L163.22,76.17,175,93.56h-4.62l-9.95-14.83L157.58,82V93.56h-3.9Z" transform="translate(-46.33 -21.64)" style="fill:#ed2024"/><path d="M114.14,22.27a37.57,37.57,0,0,1,7.12-.63c3.9,0,6.41.67,8.29,2.19a6.34,6.34,0,0,1,2.51,5.34c0,2.91-1.93,5.47-5.11,6.63v.09a7.78,7.78,0,0,1,6.23,7.57,8.14,8.14,0,0,1-2.55,6c-2.11,1.93-5.51,2.83-10.44,2.83a45.39,45.39,0,0,1-6-.36ZM118,34.64h3.55c4.12,0,6.54-2.16,6.54-5.07,0-3.54-2.69-4.93-6.63-4.93a17.11,17.11,0,0,0-3.46.27Zm0,14.47a20.33,20.33,0,0,0,3.28.18c4,0,7.75-1.48,7.75-5.87,0-4.12-3.54-5.83-7.8-5.83H118Z" transform="translate(-46.33 -21.64)" style="fill:#ed2024"/><path d="M129.14,135.63,125.29,129c-1.57-2.55-2.55-4.21-3.5-6h-.08c-.86,1.75-1.71,3.37-3.28,6l-3.63,6.63h-4.48l9.24-15.28-8.88-14.92h4.53l4,7.08c1.12,2,2,3.49,2.77,5.11h.14c.85-1.8,1.61-3.19,2.73-5.11l4.13-7.08h4.48l-9.19,14.7,9.41,15.5Z" transform="translate(-46.33 -21.64)" style="fill:#ed2024"/><polygon points="59.98 55.6 59.98 51.36 75.67 46.5 92.24 51.61 92.24 55.72 89 55.72 89 53.23 75.55 49.62 63.46 53.23 63.46 55.6 59.98 55.6" style="fill:#ed2024"/><polygon points="92.31 58.96 92.31 63.2 76.61 68.06 60.04 62.95 60.04 58.84 63.28 58.84 63.28 61.33 76.73 64.94 88.82 61.33 88.82 58.96 92.31 58.96" style="fill:#ed2024"/></svg>