<svg id="Layer_1" data-name="Layer 1" xmlns="http://www.w3.org/2000/svg" viewBox="0 0 207.92 50.87"><path d="M14.11,74.22a11.8,11.8,0,0,0,6,1.69c3.4,0,5.4-1.8,5.4-4.41,0-2.41-1.38-3.79-4.87-5.13-4.21-1.49-6.82-3.68-6.82-7.32,0-4,3.34-7,8.35-7a11.73,11.73,0,0,1,5.71,1.27L26.94,56A10.23,10.23,0,0,0,22,54.8c-3.52,0-4.87,2.11-4.87,3.87,0,2.41,1.58,3.6,5.14,5,4.36,1.68,6.58,3.79,6.58,7.58,0,4-2.94,7.43-9,7.43A13.35,13.35,0,0,1,13.27,77Z" transform="translate(-13.27 -52.04)" style="fill:#207544"/><path d="M44,55.3H36.13V52.47H55.25V55.3H47.36v23H44Z" transform="translate(-13.27 -52.04)" style="fill:#207544"/><path d="M105,52.47h3.33V64.91h.12c.69-1,1.37-1.91,2-2.75l7.89-9.69h4.13l-9.34,11,10.07,14.86h-4l-8.5-12.68-2.45,2.84v9.84H105Z" transform="translate(-13.27 -52.04)" style="fill:#207544"/><path d="M145.14,52.81a31.88,31.88,0,0,1,6.09-.54c3.33,0,5.47.58,7.08,1.88a5.43,5.43,0,0,1,2.15,4.56,6.14,6.14,0,0,1-4.37,5.67v.07a6.67,6.67,0,0,1,5.33,6.48,7,7,0,0,1-2.19,5.17c-1.8,1.64-4.71,2.41-8.92,2.41a37.64,37.64,0,0,1-5.17-.31Zm3.33,10.57h3c3.52,0,5.59-1.84,5.59-4.33,0-3-2.3-4.21-5.67-4.21a14.72,14.72,0,0,0-2.95.23Zm0,12.37a17.08,17.08,0,0,0,2.8.16c3.44,0,6.62-1.27,6.62-5,0-3.53-3-5-6.66-5h-2.76Z" transform="translate(-13.27 -52.04)" style="fill:#207544"/><path d="M193.59,65.1c0,8.89-5.4,13.6-12,13.6-6.82,0-11.6-5.28-11.6-13.1C170,57.41,175.09,52,182,52,189,52,193.59,57.45,193.59,65.1Zm-20,.43c0,5.51,3,10.45,8.23,10.45s8.27-4.86,8.27-10.72c0-5.13-2.68-10.5-8.23-10.5S173.56,59.86,173.56,65.53Z" transform="translate(-13.27 -52.04)" style="fill:#207544"/><path d="M216.65,78.28l-3.3-5.71c-1.34-2.18-2.18-3.6-3-5.09h-.07c-.73,1.49-1.46,2.87-2.8,5.13l-3.1,5.67h-3.83l7.89-13.06-7.58-12.75h3.86l3.41,6.05c1,1.68,1.69,3,2.38,4.36h.11c.73-1.53,1.38-2.72,2.34-4.36l3.52-6.05h3.83L212.47,65l8,13.25Z" transform="translate(-13.27 -52.04)" style="fill:#207544"/><polygon points="51.91 11.61 51.91 7.93 65.54 3.71 79.93 8.14 79.93 11.72 77.12 11.72 77.12 9.55 65.43 6.41 54.94 9.55 54.94 11.61 51.91 11.61" style="fill:#207544"/><polygon points="79.99 14.53 79.99 18.21 66.35 22.43 51.96 17.99 51.96 14.42 54.78 14.42 54.78 16.59 66.46 19.73 76.96 16.59 76.96 14.53 79.99 14.53" style="fill:#207544"/><path d="M13.78,92.76c0-1.15,0-2.08-.07-2.93h1.46l.08,1.54h0a3.51,3.51,0,0,1,3.19-1.75c2.17,0,3.8,1.84,3.8,4.57,0,3.23-2,4.82-4.08,4.82a3.16,3.16,0,0,1-2.77-1.41h0v4.88H13.78Zm1.62,2.39a3.36,3.36,0,0,0,.07.67,2.52,2.52,0,0,0,2.45,1.91c1.73,0,2.73-1.41,2.73-3.47,0-1.8-.95-3.34-2.67-3.34a2.6,2.6,0,0,0-2.47,2,2.4,2.4,0,0,0-.11.66Z" transform="translate(-13.27 -52.04)" style="fill:#207544"/><path d="M27.07,85.64h1.64V98.81H27.07Z" transform="translate(-13.27 -52.04)" style="fill:#207544"/><path d="M39.15,98.81,39,97.68H39A3.36,3.36,0,0,1,36.22,99a2.55,2.55,0,0,1-2.74-2.58c0-2.17,1.93-3.35,5.4-3.34v-.18a1.86,1.86,0,0,0-2-2.08,4.45,4.45,0,0,0-2.34.67l-.37-1.08a5.57,5.57,0,0,1,2.95-.8c2.74,0,3.41,1.88,3.41,3.68v3.36a12.72,12.72,0,0,0,.15,2.15Zm-.24-4.58c-1.78,0-3.8.27-3.8,2a1.44,1.44,0,0,0,1.54,1.56,2.23,2.23,0,0,0,2.17-1.51,1.52,1.52,0,0,0,.09-.51Z" transform="translate(-13.27 -52.04)" style="fill:#207544"/><path d="M46.3,89.83l2,5.31c.2.59.43,1.29.57,1.83h0c.17-.54.35-1.22.58-1.87l1.78-5.27H53l-2.45,6.4c-1.16,3.08-2,4.66-3.08,5.62a4.29,4.29,0,0,1-2,1.06L45,101.54a4.26,4.26,0,0,0,1.43-.8,4.83,4.83,0,0,0,1.37-1.82,1.09,1.09,0,0,0,.13-.39,1.31,1.31,0,0,0-.11-.43l-3.32-8.27Z" transform="translate(-13.27 -52.04)" style="fill:#207544"/><path d="M72,94.25A4.38,4.38,0,0,1,67.5,99a4.27,4.27,0,0,1-4.31-4.62c0-3,2-4.77,4.46-4.77S72,91.5,72,94.25Zm-7.12.09c0,2,1.13,3.45,2.72,3.45s2.73-1.47,2.73-3.49c0-1.52-.76-3.45-2.69-3.45S64.85,92.63,64.85,94.34Z" transform="translate(-13.27 -52.04)" style="fill:#207544"/><path d="M84.28,96.36c0,.93,0,1.74.07,2.45H82.9l-.09-1.47h0a3.35,3.35,0,0,1-3,1.67c-1.41,0-3.1-.78-3.1-3.93V89.83h1.63v5c0,1.71.52,2.86,2,2.86a2.36,2.36,0,0,0,2.16-1.49,2.4,2.4,0,0,0,.15-.83V89.83h1.63Z" transform="translate(-13.27 -52.04)" style="fill:#207544"/><path d="M91.69,87.25v2.58H94v1.24H91.69v4.85c0,1.11.31,1.74,1.22,1.74a4,4,0,0,0,1-.11l.07,1.22a4,4,0,0,1-1.45.23,2.28,2.28,0,0,1-1.76-.69A3.34,3.34,0,0,1,90.09,96v-4.9H88.7V89.83h1.39V87.68Z" transform="translate(-13.27 -52.04)" style="fill:#207544"/><path d="M98.37,97.14a4.24,4.24,0,0,0,2.15.65c1.19,0,1.75-.59,1.75-1.34s-.47-1.2-1.67-1.65c-1.62-.57-2.38-1.46-2.38-2.54,0-1.45,1.17-2.64,3.1-2.64a4.45,4.45,0,0,1,2.21.56l-.41,1.19a3.51,3.51,0,0,0-1.84-.52c-1,0-1.5.56-1.5,1.22s.54,1.08,1.71,1.53c1.55.59,2.35,1.37,2.35,2.7,0,1.58-1.22,2.7-3.36,2.7A5.13,5.13,0,0,1,98,98.38Z" transform="translate(-13.27 -52.04)" style="fill:#207544"/><path d="M110.49,87.31a1,1,0,0,1-2,0,1,1,0,0,1,1-1A1,1,0,0,1,110.49,87.31Zm-1.82,11.5v-9h1.63v9Z" transform="translate(-13.27 -52.04)" style="fill:#207544"/><path d="M123.5,85.64V96.49c0,.8,0,1.71.07,2.32h-1.46L122,97.25h0A3.33,3.33,0,0,1,118.93,99c-2.17,0-3.84-1.83-3.84-4.56,0-3,1.84-4.83,4-4.83A3,3,0,0,1,121.83,91h0V85.64Zm-1.63,7.84a2.63,2.63,0,0,0-.08-.68,2.39,2.39,0,0,0-2.35-1.89c-1.69,0-2.69,1.48-2.69,3.47,0,1.81.89,3.32,2.65,3.32a2.46,2.46,0,0,0,2.39-2,2.66,2.66,0,0,0,.08-.71Z" transform="translate(-13.27 -52.04)" style="fill:#207544"/><path d="M129.85,94.62a2.88,2.88,0,0,0,3.08,3.11,6,6,0,0,0,2.49-.46l.28,1.17a7.29,7.29,0,0,1-3,.56,4.17,4.17,0,0,1-4.42-4.53c0-2.71,1.6-4.85,4.21-4.85,2.94,0,3.71,2.58,3.71,4.24a6.2,6.2,0,0,1-.05.76Zm4.79-1.17a2.33,2.33,0,0,0-2.27-2.66,2.71,2.71,0,0,0-2.5,2.66Z" transform="translate(-13.27 -52.04)" style="fill:#207544"/><path d="M149.6,87.25v2.58h2.34v1.24H149.6v4.85c0,1.11.32,1.74,1.22,1.74a3.9,3.9,0,0,0,1-.11l.07,1.22a3.91,3.91,0,0,1-1.44.23,2.3,2.3,0,0,1-1.77-.69A3.34,3.34,0,0,1,148,96v-4.9h-1.39V89.83H148V87.68Z" transform="translate(-13.27 -52.04)" style="fill:#207544"/><path d="M156.51,85.64h1.63v5.6h0a3.05,3.05,0,0,1,1.16-1.15,3.38,3.38,0,0,1,1.67-.47c1.21,0,3.14.75,3.14,3.85v5.34h-1.63V93.65c0-1.45-.54-2.67-2.08-2.67a2.35,2.35,0,0,0-2.19,1.63,2,2,0,0,0-.11.78v5.42h-1.63Z" transform="translate(-13.27 -52.04)" style="fill:#207544"/><path d="M170.45,94.62a2.87,2.87,0,0,0,3.08,3.11,5.9,5.9,0,0,0,2.48-.46l.28,1.17a7.29,7.29,0,0,1-3,.56,4.17,4.17,0,0,1-4.41-4.53c0-2.71,1.59-4.85,4.21-4.85,2.93,0,3.71,2.58,3.71,4.24a5.82,5.82,0,0,1-.06.76Zm4.78-1.17A2.32,2.32,0,0,0,173,90.79a2.72,2.72,0,0,0-2.51,2.66Z" transform="translate(-13.27 -52.04)" style="fill:#207544"/><path d="M188.15,98.81c0-.61.08-1.52.08-2.32V85.64h1.61v5.64h0a3.34,3.34,0,0,1,3.06-1.66c2.23,0,3.81,1.86,3.79,4.59,0,3.21-2,4.8-4,4.8a3.21,3.21,0,0,1-3-1.68h-.05l-.08,1.48Zm1.69-3.6a2.8,2.8,0,0,0,.08.59,2.5,2.5,0,0,0,2.45,1.91c1.7,0,2.72-1.39,2.72-3.45,0-1.8-.92-3.34-2.67-3.34a2.59,2.59,0,0,0-2.48,2,3,3,0,0,0-.1.67Z" transform="translate(-13.27 -52.04)" style="fill:#207544"/><path d="M209.65,94.25A4.39,4.39,0,0,1,205.17,99a4.27,4.27,0,0,1-4.3-4.62c0-3,2-4.77,4.45-4.77S209.65,91.5,209.65,94.25Zm-7.13.09c0,2,1.13,3.45,2.73,3.45S208,96.32,208,94.3c0-1.52-.77-3.45-2.69-3.45S202.52,92.63,202.52,94.34Z" transform="translate(-13.27 -52.04)" style="fill:#207544"/><path d="M214.94,89.83l1.28,1.93c.33.5.61,1,.91,1.46h.05c.3-.53.6-1,.89-1.48l1.27-1.91h1.76L218,94.17l3.15,4.64h-1.85l-1.32-2c-.35-.52-.65-1-1-1.56h0c-.3.54-.62,1-1,1.56l-1.3,2H213l3.19-4.58-3-4.4Z" transform="translate(-13.27 -52.04)" style="fill:#207544"/></svg>