<svg id="Layer_1" data-name="Layer 1" xmlns="http://www.w3.org/2000/svg" xmlns:xlink="http://www.w3.org/1999/xlink" viewBox="0 0 100% 100%"><defs><pattern id="stokbox_pattern" data-name="stokbox_pattern" x="-35.56" y="29.33" width="155.91" height="215.43" patternUnits="userSpaceOnUse" viewBox="0 0 155.91 215.43"><rect width="155.91" height="215.43" style="fill:none"/><path d="M58.28,226.82A15.54,15.54,0,0,0,66,228.75c7.12,0,10.57-4,10.57-8.7,0-4.43-2.6-6.9-7.71-8.87-4.16-1.61-6-3-6-5.82,0-2.07,1.57-4.53,5.69-4.53a12.18,12.18,0,0,1,5.74,1.43l1.07-3.18a13.72,13.72,0,0,0-6.68-1.48c-5.87,0-9.77,3.5-9.77,8.2,0,4.26,3.05,6.82,8,8.56,4.08,1.57,5.69,3.18,5.69,6,0,3-2.33,5.15-6.32,5.15a13.8,13.8,0,0,1-7-2Z" style="fill:#ed2024"/><path d="M94.22,228.3h4V201.41h9.23V198.1H85v3.31h9.18Z" style="fill:#ed2024"/><path d="M165.62,228.3h3.9V216.78l2.87-3.31,10,14.83H187l-11.79-17.39,10.94-12.81h-4.84L172,209.43c-.76,1-1.57,2.06-2.37,3.23h-.14V198.1h-3.9Z" style="fill:#ed2024"/><path d="M126.08,186.72a45.39,45.39,0,0,0,6,.36c4.93,0,8.34-.9,10.44-2.83a8.12,8.12,0,0,0,2.56-6.05,7.78,7.78,0,0,0-6.23-7.57v-.09c3.18-1.17,5.11-3.72,5.11-6.63a6.34,6.34,0,0,0-2.51-5.34c-1.88-1.52-4.39-2.19-8.29-2.19a38.73,38.73,0,0,0-7.13.62Zm3.9-14.39h3.23c4.26,0,7.8,1.7,7.8,5.83,0,4.39-3.72,5.87-7.76,5.87a21.33,21.33,0,0,1-3.27-.18Zm0-12.68a16.33,16.33,0,0,1,3.45-.27c3.95,0,6.64,1.39,6.64,4.93,0,2.91-2.42,5.06-6.55,5.06H130Z" style="fill:#ed2024"/><polygon points="118.25 211.97 118.25 207.74 133.95 202.88 150.52 207.99 150.52 212.1 147.28 212.1 147.28 209.61 133.83 206 121.74 209.61 121.74 211.97 118.25 211.97" style="fill:#ed2024"/><polygon points="150.58 215.34 150.58 219.58 134.88 224.44 118.31 219.33 118.31 215.22 121.55 215.22 121.55 217.71 135.01 221.32 147.09 217.71 147.09 215.34 150.58 215.34" style="fill:#ed2024"/><path d="M-97.63,226.82a15.6,15.6,0,0,0,7.71,1.93c7.13,0,10.58-4,10.58-8.7,0-4.43-2.6-6.9-7.71-8.87-4.17-1.61-6-3-6-5.82,0-2.07,1.57-4.53,5.69-4.53a12.1,12.1,0,0,1,5.74,1.43l1.08-3.18a13.78,13.78,0,0,0-6.68-1.48c-5.87,0-9.77,3.5-9.77,8.2,0,4.26,3,6.82,8,8.56,4.07,1.57,5.69,3.18,5.69,6,0,3-2.33,5.15-6.32,5.15a13.77,13.77,0,0,1-7-2Z" style="fill:#ed2024"/><path d="M-61.68,228.3h3.94V201.41h9.23V198.1H-70.87v3.31h9.19Z" style="fill:#ed2024"/><path d="M9.72,228.3h3.9V216.78l2.87-3.31,10,14.83h4.61L19.26,210.91,30.2,198.1H25.36l-9.23,11.33c-.76,1-1.57,2.06-2.38,3.23h-.13V198.1H9.72Z" style="fill:#ed2024"/><path d="M136.23,119.11a15.65,15.65,0,0,0,7.71,1.92c7.12,0,10.57-4,10.57-8.69,0-4.44-2.59-6.9-7.7-8.87-4.17-1.62-6-3-6-5.83,0-2.06,1.57-4.53,5.69-4.53a12,12,0,0,1,5.74,1.44l1.07-3.18a13.59,13.59,0,0,0-6.67-1.48c-5.87,0-9.77,3.49-9.77,8.2,0,4.26,3,6.81,8,8.56,4.08,1.57,5.7,3.18,5.7,6,0,3-2.33,5.16-6.32,5.16a13.74,13.74,0,0,1-7-2Z" style="fill:#ed2024"/><path d="M172.18,120.58h3.94V93.7h9.23V90.38H163V93.7h9.19Z" style="fill:#ed2024"/><path d="M243.58,120.58h3.9V109.07l2.86-3.32,10,14.83h4.62L253.12,103.2l10.94-12.82h-4.84L250,101.72c-.77,1-1.57,2.06-2.38,3.22h-.13V90.38h-3.9Z" style="fill:#ed2024"/><path d="M-19.68,119.11A15.71,15.71,0,0,0-12,121c7.13,0,10.58-4,10.58-8.69,0-4.44-2.6-6.9-7.71-8.87-4.17-1.62-6-3-6-5.83,0-2.06,1.56-4.53,5.69-4.53a12,12,0,0,1,5.73,1.44l1.08-3.18a13.67,13.67,0,0,0-6.68-1.48c-5.87,0-9.77,3.49-9.77,8.2,0,4.26,3.05,6.81,8,8.56,4.08,1.57,5.69,3.18,5.69,6,0,3-2.33,5.16-6.32,5.16a13.77,13.77,0,0,1-7-2Z" style="fill:#ed2024"/><path d="M16.27,120.58h3.94V93.7h9.24V90.38H7.08V93.7h9.19Z" style="fill:#ed2024"/><path d="M87.67,120.58h3.9V109.07l2.87-3.32,10,14.83H109L97.22,103.2l10.93-12.82h-4.84l-9.23,11.34c-.76,1-1.57,2.06-2.37,3.22h-.14V90.38h-3.9Z" style="fill:#ed2024"/><path d="M48.13,79a45.39,45.39,0,0,0,6,.36c4.93,0,8.34-.9,10.44-2.82a8.12,8.12,0,0,0,2.56-6.05A7.79,7.79,0,0,0,61,62.91v-.09c3.18-1.16,5.11-3.72,5.11-6.63a6.31,6.31,0,0,0-2.51-5.33c-1.88-1.53-4.39-2.2-8.29-2.2a37.61,37.61,0,0,0-7.13.63ZM52,64.62h3.23c4.25,0,7.79,1.7,7.79,5.82,0,4.39-3.72,5.87-7.75,5.87A20.12,20.12,0,0,1,52,76.13Zm0-12.69a17.06,17.06,0,0,1,3.45-.27c3.94,0,6.63,1.39,6.63,4.93,0,2.92-2.42,5.07-6.54,5.07H52Z" style="fill:#ed2024"/><path d="M67.67,162.65l-9.42-15.5,9.19-14.7H63l-4.12,7.08c-1.12,1.93-1.88,3.32-2.74,5.11H56c-.81-1.61-1.66-3.14-2.78-5.11l-4-7.08H44.68l8.87,14.92-9.23,15.28H48.8L52.43,156c1.57-2.64,2.42-4.26,3.27-6h.09c.94,1.74,1.93,3.4,3.5,6l3.85,6.67Z" style="fill:#ed2024"/><polygon points="40.3 104.26 40.3 100.02 56 95.16 72.57 100.27 72.57 104.38 69.33 104.38 69.33 101.89 55.87 98.28 43.79 101.89 43.79 104.26 40.3 104.26" style="fill:#ed2024"/><polygon points="72.63 107.62 72.63 111.86 56.93 116.72 40.36 111.61 40.36 107.5 43.6 107.5 43.6 109.99 57.06 113.6 69.14 109.99 69.14 107.62 72.63 107.62" style="fill:#ed2024"/><path d="M-175.58,119.11a15.65,15.65,0,0,0,7.71,1.92c7.12,0,10.57-4,10.57-8.69,0-4.44-2.6-6.9-7.7-8.87-4.17-1.62-6-3-6-5.83,0-2.06,1.57-4.53,5.69-4.53a12,12,0,0,1,5.74,1.44l1.07-3.18a13.59,13.59,0,0,0-6.67-1.48c-5.87,0-9.77,3.49-9.77,8.2,0,4.26,3,6.81,8,8.56,4.08,1.57,5.7,3.18,5.7,6,0,3-2.34,5.16-6.32,5.16a13.74,13.74,0,0,1-7-2Z" style="fill:#ed2024"/><path d="M-139.63,120.58h3.94V93.7h9.23V90.38h-22.36V93.7h9.19Z" style="fill:#ed2024"/><path d="M-68.23,120.58h3.9V109.07l2.86-3.32,9.95,14.83h4.62L-58.69,103.2l10.94-12.82h-4.84l-9.24,11.34c-.76,1-1.56,2.06-2.37,3.22h-.13V90.38h-3.9Z" style="fill:#ed2024"/><path d="M58.28,11.39A15.64,15.64,0,0,0,66,13.32c7.12,0,10.57-4,10.57-8.7,0-4.43-2.6-6.9-7.71-8.87-4.16-1.61-6-3-6-5.83,0-2.06,1.57-4.52,5.69-4.52a12.06,12.06,0,0,1,5.74,1.43l1.07-3.18a13.72,13.72,0,0,0-6.68-1.48c-5.87,0-9.77,3.5-9.77,8.2,0,4.26,3.05,6.81,8,8.56,4.08,1.57,5.69,3.18,5.69,6,0,3-2.33,5.15-6.32,5.15a13.9,13.9,0,0,1-7-2Z" style="fill:#ed2024"/><path d="M94.22,12.87h4V-14h9.23v-3.32H85V-14h9.18Z" style="fill:#ed2024"/><path d="M165.62,12.87h3.9V1.35L172.39-2l10,14.84H187L175.17-4.52l10.94-12.82h-4.84L172-6c-.76,1-1.57,2.06-2.37,3.23h-.14V-17.34h-3.9Z" style="fill:#ed2024"/><path d="M145.62,54.94l-9.41-15.51,9.19-14.7h-4.49l-4.12,7.08c-1.12,1.93-1.88,3.32-2.73,5.11h-.14c-.8-1.61-1.66-3.14-2.78-5.11l-4-7.08h-4.53l8.87,14.93-9.23,15.28h4.48l3.63-6.64c1.57-2.64,2.42-4.25,3.27-6h.09c.94,1.75,1.93,3.41,3.5,6l3.85,6.68Z" style="fill:#ed2024"/><polygon points="150.58 -0.09 150.58 4.14 134.88 9 118.31 3.89 118.31 -0.22 121.55 -0.22 121.55 2.27 135.01 5.89 147.09 2.27 147.09 -0.09 150.58 -0.09" style="fill:#ed2024"/><path d="M-97.63,11.39a15.7,15.7,0,0,0,7.71,1.93c7.13,0,10.58-4,10.58-8.7,0-4.43-2.6-6.9-7.71-8.87-4.17-1.61-6-3-6-5.83,0-2.06,1.57-4.52,5.69-4.52a12,12,0,0,1,5.74,1.43l1.08-3.18a13.78,13.78,0,0,0-6.68-1.48c-5.87,0-9.77,3.5-9.77,8.2,0,4.26,3,6.81,8,8.56,4.07,1.57,5.69,3.18,5.69,6,0,3-2.33,5.15-6.32,5.15a13.87,13.87,0,0,1-7-2Z" style="fill:#ed2024"/><path d="M-61.68,12.87h3.94V-14h9.23v-3.32H-70.87V-14h9.19Z" style="fill:#ed2024"/><path d="M9.72,12.87h3.9V1.35L16.49-2l10,14.84h4.61L19.26-4.52,30.2-17.34H25.36L16.13-6c-.76,1-1.57,2.06-2.38,3.23h-.13V-17.34H9.72Z" style="fill:#ed2024"/></pattern></defs><rect width="100%" height="100%" style="fill:url(#stokbox_pattern)"/></svg>
