<svg id="Layer_1" data-name="Layer 1" xmlns="http://www.w3.org/2000/svg" viewBox="0 0 80.59 54.55"><path d="M116.19,41.58,77.28,54.2V64.85H92.9c.61-1.07,3.73-6.06,9.22-6.76V60A8.4,8.4,0,0,0,94.7,68.1c0,4.53,4,8.2,8.84,8.2s8.85-3.67,8.85-8.2a6.62,6.62,0,0,0,0-.77h9.19c0,.25,0,.51,0,.77,0,4.54,4,8.21,8.85,8.21s8.85-3.67,8.85-8.21a8.34,8.34,0,0,0-6.56-7.93v-2c5.59,1.23,8.48,6.83,8.48,6.83h16.76V54.2Zm13.62,18.33a8.72,8.72,0,0,0-8,6.16h-9.67A8.64,8.64,0,0,0,105,60V58.1c5.8.63,7.76,4.65,7.76,4.65h1.37v0h7.08s2.16-4.43,8.64-4.73Z" transform="translate(-77.28 -41.58)" style="fill:#098643"/><path d="M138.7,74.66c1.51,1.92,2.72,3.84,1.09,4.44S137,76,137,76a8.92,8.92,0,0,1-6.5,2c-10.84,0-11-10.07-11-10.07h-5s-.21,10-11,10a9,9,0,0,1-6.5-2s-1.18,3.73-2.81,3.13-.41-2.52,1.1-4.44A9.5,9.5,0,0,1,92.68,68H77.28V82.16l40.3,14,40.3-14V68.27H141.2A9.51,9.51,0,0,1,138.7,74.66Z" transform="translate(-77.28 -41.58)" style="fill:#098643"/></svg>