<svg id="Layer_1" data-name="Layer 1" xmlns="http://www.w3.org/2000/svg" viewBox="0 0 81.12 54.85"><path d="M35.75,32.24,74.86,19.56l41.91,12.68.09,13.21-24.54.11L87.42,41l0-7.24a4,4,0,0,0-.17-1.74,4.05,4.05,0,0,0-1.41-1.91,4.7,4.7,0,0,0-2.25-.86,4.3,4.3,0,0,0-2.49.24,3.89,3.89,0,0,0-1,.67,5,5,0,0,0-.78.95,4.77,4.77,0,0,0-.74,2.62h-.4l-1.94,2.07s-3.55-4.09-7.39-.24.15,7.14.15,7.14-2.41,1.57-2,2.74l-31.31,0Z" transform="translate(-35.73 -19.56)" style="fill:#ed2024"/><path d="M69.7,42l5.61-5.41s-3.23-2.72-5.62-.42S69.7,42,69.7,42Z" transform="translate(-35.73 -19.56)" style="fill:#ed2024"/><path d="M35.73,48.16V60.35L76.26,74.41l40.51-14.06.09-12.19-25.61,0L80.55,58.82a1.13,1.13,0,0,1-1.85,0c-1-1.1-1.52-1.52-1.52-1.52L68.12,56s-.46,0-.42-.27-6.35-1-6.35-1-1,3-3.47,3l1-8.75s2.79,1.47,2.56,3.83l5.59.5a10.34,10.34,0,0,1,2,.12c.67.16,4.92.29,4.92.29l-5.2-5.65Z" transform="translate(-35.73 -19.56)" style="fill:#ed2024"/><path d="M79.78,34.12S79.47,30,83.91,30.6a3,3,0,0,1,2.27,2.76v6.57Z" transform="translate(-35.73 -19.56)" style="fill:#ed2024"/></svg>