<svg id="Layer_1" data-name="Layer 1" xmlns="http://www.w3.org/2000/svg" viewBox="0 0 81.03 54.85"><path d="M131,71.28c-2,7.5-7.74,16.37-24.35,10.19,0,0-1.78,1.46-4.39-.52,0,0-1.71-1.56.4-4.6a28.53,28.53,0,0,1,.32-5.07H76.36V84l40.52,14,40.51-14V71.28Z" transform="translate(-76.36 -43.2)" style="fill:#3a53a4"/><path d="M103.49,68.69c1.78-7.43,7.3-16.85,24.39-11.29,0,0,3.35-1.46,4.72.88a4,4,0,0,1-.48,4.52,39,39,0,0,1-.53,5.89h25.8V55.88L115.48,43.2,76.36,55.88V68.69Z" transform="translate(-76.36 -43.2)" style="fill:#3a53a4"/></svg>